<?xml version="1.0" encoding="UTF-8"?><svg id="a" xmlns="http://www.w3.org/2000/svg" viewBox="0 0 70 70"><defs><style>.b{fill:#fff;fill-rule:evenodd;}</style></defs><path class="b" d="M35,.86C15.67,.86,0,16.53,0,35.87c0,15.46,10.03,28.58,23.94,33.21,1.75,.32,2.39-.76,2.39-1.69,0-.83-.03-3.03-.05-5.95-9.74,2.12-11.79-4.69-11.79-4.69-1.59-4.04-3.89-5.12-3.89-5.12-3.18-2.17,.24-2.13,.24-2.13,3.51,.25,5.36,3.61,5.36,3.61,3.12,5.35,8.19,3.8,10.19,2.91,.32-2.26,1.22-3.8,2.22-4.68-7.77-.88-15.94-3.89-15.94-17.3,0-3.82,1.36-6.95,3.6-9.39-.36-.89-1.56-4.44,.34-9.26,0,0,2.94-.94,9.62,3.59,2.79-.78,5.79-1.16,8.76-1.18,2.97,.01,5.97,.4,8.76,1.18,6.68-4.53,9.62-3.59,9.62-3.59,1.91,4.82,.71,8.38,.35,9.26,2.24,2.45,3.6,5.57,3.6,9.39,0,13.45-8.18,16.4-15.98,17.27,1.26,1.08,2.38,3.22,2.38,6.48,0,4.68-.04,8.45-.04,9.6,0,.94,.63,2.02,2.41,1.68,13.9-4.64,23.91-17.75,23.91-33.21C70,16.53,54.33,.86,35,.86Z"/></svg>